<svg xmlns="http://www.w3.org/2000/svg" width="32" height="32" viewBox="0 0 32 32">
    <path fill="#C71F66" fill-rule="evenodd" d="M4.148 17.481h8.889c.771 0 1.403.588 1.475 1.34l.007.142v8.889c0 .77-.587 1.403-1.34 1.475l-.142.006H4.148a1.481 1.481 0 0 1-1.475-1.339l-.006-.142v-8.889c0-.77.586-1.403 1.338-1.475l.143-.007h8.889zm23.704 0c.82 0 1.481.664 1.481 1.482v8.889c0 .818-.662 1.481-1.481 1.481h-8.889c-.82 0-1.482-.663-1.482-1.481v-8.889c0-.818.663-1.482 1.482-1.482zm-16.296 2.963H5.63v5.926h5.926v-5.926zm14.814 0h-5.926v5.926h5.926v-5.926zM13.037 2.667c.771 0 1.403.588 1.475 1.339l.007.142v8.889c0 .77-.587 1.403-1.34 1.475l-.142.007H4.148a1.481 1.481 0 0 1-1.475-1.34l-.006-.142V4.148c0-.77.586-1.403 1.338-1.475l.143-.006h8.889zm14.815 0c.77 0 1.403.588 1.475 1.339l.006.142v8.889c0 .77-.586 1.403-1.338 1.475l-.143.007h-8.889a1.481 1.481 0 0 1-1.475-1.34l-.007-.142V4.148c0-.77.587-1.403 1.34-1.475l.142-.006h8.889zM11.556 5.63H5.63v5.926h5.926V5.63zm14.814 0h-5.926v5.926h5.926V5.63z"/>
</svg>
