<svg xmlns="http://www.w3.org/2000/svg" xmlns:xlink="http://www.w3.org/1999/xlink" width="32" height="32" viewBox="0 0 32 32">
    <defs>
        <path id="a" d="M13.167.667H4.833A4.179 4.179 0 0 0 .667 4.833v8.334a4.18 4.18 0 0 0 4.166 4.166h8.334a4.18 4.18 0 0 0 4.166-4.166V4.833A4.179 4.179 0 0 0 13.167.667zM9 12.472a3.472 3.472 0 1 1 0-6.945 3.472 3.472 0 0 1 0 6.945zm4.514-6.944a1.041 1.041 0 1 1 0-2.083 1.041 1.041 0 0 1 0 2.083z"/>
    </defs>
    <g fill="none" fill-rule="evenodd">
        <circle cx="16" cy="16" r="15.5" fill="#FFF" fill-opacity="0" stroke="#8D8E8E"/>
        <g transform="translate(7 7)">
            <mask id="b" fill="#fff">
                <use xlink:href="#a"/>
            </mask>
            <use fill="#000" fill-rule="nonzero" xlink:href="#a"/>
            <g fill="#8D8E8E" mask="url(#b)">
                <path d="M-1-1h19.977v19.977H-1z"/>
            </g>
        </g>
    </g>
</svg>
