<svg xmlns="http://www.w3.org/2000/svg" width="16" height="15" viewBox="0 0 16 15">
    <path fill="#FFF" d="M13.175 14.4c.125 0 .225-.037.3-.112l1.612-1.65c.175-.176.175-.35 0-.525L11.9 8.887c.525-.9.787-1.875.787-2.925 0-1.65-.58-3.056-1.743-4.218C9.78.58 8.387 0 6.762 0c-1.625 0-3.024.581-4.2 1.744C1.387 2.906.8 4.313.8 5.962c0 1.65.587 3.057 1.762 4.22 1.176 1.162 2.575 1.743 4.2 1.743 1.05 0 2.05-.288 3-.863l3.15 3.226c.075.075.163.112.263.112zM6.762 9.6c-1 0-1.856-.356-2.568-1.069-.713-.712-1.069-1.569-1.069-2.569s.356-1.856 1.069-2.568c.712-.713 1.568-1.069 2.568-1.069s1.85.362 2.55 1.088c.7.7 1.05 1.55 1.05 2.55 0 1-.35 1.856-1.05 2.568-.7.713-1.55 1.069-2.55 1.069z"/>
</svg>
